<?xml version="1.0" encoding="utf-8"?>
<!-- Generator: Adobe Illustrator 27.5.0, SVG Export Plug-In . SVG Version: 6.00 Build 0)  -->
<svg version="1.1" id="Layer_1" xmlns="http://www.w3.org/2000/svg" xmlns:xlink="http://www.w3.org/1999/xlink" x="0px" y="0px"
	 viewBox="0 0 406.8 317.8" style="enable-background:new 0 0 406.8 317.8;" xml:space="preserve">
<style type="text/css">
	.st0{display:none;fill:#BEBEBE;}
	.st1{fill:#BEBEBE;}
</style>
<g>
	<path class="st0" d="M0,98.2c0-67.3,0-134.6,0-202c136.5,0,273,0,409.6,0c0,136.5,0,273.1,0,409.6c-63,0-126.1,0-189.2,0
		c0.5-0.2,0.9-0.5,1.4-0.6c14.7-2.7,24.8-11,28.7-25.4c1.8-6.5,1.6-13.7,1.7-20.5c0.1-6.1-0.6-12.3,5.3-16.5c0.3-0.2,0.4-0.7,0.6-1
		c4.4-6.5,6.2-13.7,6.2-21.5c0-16.5,5.3-30.9,16.6-43.2c4.9-5.3,9.7-10.7,13.5-16.7c24.9-38.6,23.6-86.1-3.5-123
		C263.3-0.4,215.1-15.6,170.5-0.9C95,24,71.7,118.3,126.6,175.8c12.1,12.7,17.9,27.4,17.9,44.6c0,7.6,0.9,15.6,6.2,20.9
		c6.6,6.6,5.8,14.2,5.8,22c0,2.1-0.1,4.3,0,6.4c0.4,12,4.8,22.2,14.9,29c5,3.3,11.3,4.9,17,7.2c-62.8,0-125.5,0-188.5,0
		c0-67.1,0-134.1,0-201.2c2.5,4.8,5.7,8.7,11.7,8.7c16.5,0.1,33,0.1,49.4,0c5.1-0.1,8.8-2.8,10.7-7.6c3.1-7.9-2.6-16.1-11.5-16.2
		c-14.8-0.1-29.5,0.2-44.2-0.2C8.6,89.1,3.2,91.3,0,98.2z M216.4-66.4c0-7.7,0-15.4,0-23.2c0-8.1-5-13.5-12.1-13.4
		c-7,0.1-11.8,5.4-11.9,13.3c0,15.3,0,30.6,0,45.9c0,8.1,5,13.5,12.1,13.4c7.1-0.1,11.8-5.5,11.9-13.7
		C216.4-51.5,216.4-58.9,216.4-66.4z M372.3,113.4c7.9,0,15.7,0.1,23.5,0c7.7-0.1,13.1-5.1,13-12.1c-0.1-6.8-5.4-11.8-12.9-11.8
		c-15.6-0.1-31.1-0.1-46.7,0c-7.7,0-13.1,5.1-13,12.1c0.1,6.8,5.4,11.8,12.9,11.8C356.9,113.4,364.6,113.4,372.3,113.4z M114.9-1.6
		c-0.8-1.5-1.6-4.7-3.6-6.7c-11.2-11.6-22.5-23-34.2-34.1c-2.3-2.2-6.4-3.2-9.7-3.3c-4.7,0-8.1,3.1-9.7,7.6c-1.7,4.7-0.6,9,2.9,12.5
		C67.7-18.3,75-11.1,82.3-3.8c4.2,4.2,8.4,8.6,12.8,12.6c3.7,3.3,8.1,3.9,12.6,1.8C112.3,8.5,114.4,4.8,114.9-1.6z M307.5,11.9
		c1.5-0.8,4.7-1.6,6.7-3.6c11.6-11.2,23-22.5,34.1-34.2c2.2-2.3,3.2-6.4,3.2-9.7c0-4.7-3.1-8.1-7.6-9.7c-4.9-1.8-9.2-0.4-12.8,3.1
		c-7.2,7.1-14.3,14.3-21.5,21.4c-4.2,4.2-8.6,8.4-12.6,12.8c-3.3,3.7-3.9,8.1-1.8,12.6C297.4,9.2,301.1,11.4,307.5,11.9z"/>
	<path class="st1" d="M0,98.2c3.2-6.9,8.6-9.1,16.1-8.9c14.7,0.4,29.5,0,44.2,0.2c8.9,0.1,14.6,8.3,11.5,16.2
		c-1.9,4.8-5.6,7.6-10.7,7.6c-16.5,0.2-33,0.1-49.4,0c-5.9,0-9.2-4-11.7-8.7C0,102.5,0,100.3,0,98.2z"/>
	<path class="st1" d="M372.3,113.4c-7.7,0-15.4,0.1-23.1,0c-7.5-0.1-12.8-5-12.9-11.8c-0.1-7,5.3-12.1,13-12.1
		c15.6-0.1,31.1-0.1,46.7,0c7.5,0,12.8,5,12.9,11.8c0.1,7-5.3,12-13,12.1C388,113.4,380.2,113.4,372.3,113.4z"/>
	<path class="st1" d="M76.4,34.7c2.3,6,1.9,10.3-1.3,14.1c-3.2,3.8-7.5,5.2-12.2,3.7c-5.7-1.8-11.3-3.9-17-5.9
		c-9.6-3.5-19.3-6.9-28.9-10.5C12.4,34.4,9.6,31,9.2,26c-0.5-4.8,1.3-9.1,5.6-11.1c3-1.4,7.2-2.2,10.2-1.2
		c15.3,5,30.4,10.6,45.4,16.3C73,31.1,75.1,33.6,76.4,34.7z"/>
	<path class="st1" d="M338.8,52.6c-5.6-3.2-8.1-6.7-8-11.7c0.1-5,2.5-8.8,7-10.6c5.5-2.3,11.2-4.2,16.8-6.2
		c9.5-3.4,19-6.9,28.6-10.2c4.8-1.7,9.3-1.1,12.9,2.6c3.4,3.4,4.8,7.8,2.8,12.1c-1.4,3-4.1,6.3-7.1,7.4c-15,5.8-30.2,11.2-45.4,16.4
		C343.7,53.2,340.5,52.6,338.8,52.6z"/>
	<path class="st0" d="M204.2,234c-7.4,0-14.9,0-22.4,0c-8.6-0.1-13.3-4.8-13.4-13.4c-0.1-19.4-5-37.3-17.1-52.8
		c-4.9-6.3-10.8-11.8-15.4-18.3c-14.1-19.8-18.1-41.9-13.5-65.6c8.6-43.9,51.7-73.2,96-64.8c35.1,6.6,58,27.7,67,62.1
		c7.4,27.8,1,53.4-18,75.2c-9.5,10.9-18.9,21.8-22.6,36.1c-2.3,9.1-3.6,18.5-4.4,27.8c-0.8,9.1-4.8,13.7-13.9,13.8
		C219.2,234,211.7,234,204.2,234z M202.2,41.6c-23.6,1-43.4,14.3-52.8,35.8c-1.6,3.7-2.9,7.8-3,11.8c-0.3,5.7,4.7,10.4,10.6,11.1
		c5.7,0.7,10.8-2.9,13-9.5c5.5-15.9,17-24.6,33.5-25.4c8-0.4,13.3-5.6,12.9-12.6C216,45.8,210.3,41.3,202.2,41.6z"/>
	<path class="st0" d="M180.5,258.1c16.1,0,31.8,0,47.7,0c0,4.7,0.4,9.4-0.1,13.9c-0.6,5.6-5.6,9.7-11.4,9.8
		c-8.2,0.2-16.5,0.2-24.7,0c-6.3-0.2-11.1-4.9-11.5-11.1C180.3,266.6,180.5,262.5,180.5,258.1z"/>
</g>
<path class="st1" d="M297.3,47.9C269.6,10.1,221.4-5.2,176.8,9.5C101.3,34.4,78,128.8,133,186.2c12.1,12.7,17.9,27.4,17.9,44.6
	c0,7.7,0.8,15.6,6.2,20.9c6.6,6.6,5.8,14.2,5.8,22c0,2.1,0,4.2,0,6.4c0.4,12,4.8,22.2,14.9,29c5,3.3,11.3,4.8,17,7.2
	c10.7,0,21.3,0,32,0c0.5-0.2,1-0.5,1.5-0.6c14.7-2.7,24.8-11,28.7-25.4c1.8-6.5,1.6-13.7,1.7-20.5c0.1-6.1-0.6-12.3,5.3-16.5
	c0.3-0.2,0.4-0.7,0.6-1c4.4-6.5,6.2-13.7,6.2-21.5c0-16.5,5.3-30.9,16.6-43.2c4.9-5.3,9.7-10.7,13.5-16.7
	C325.7,132.4,324.4,84.8,297.3,47.9z M176,101.3c-2.2,6.5-7.3,10.2-13,9.5c-5.9-0.8-10.8-5.4-10.5-11.1c0.2-4,1.4-8.1,3-11.8
	c9.4-21.5,29.2-34.8,52.8-35.8c8.1-0.3,13.8,4.2,14.2,11.3c0.4,7-5,12.2-12.9,12.6C193,76.7,181.5,85.5,176,101.3z M234.4,282.4
	c-0.6,5.6-5.5,9.7-11.4,9.8c-8.2,0.2-16.5,0.2-24.7,0c-6.3-0.2-11.1-4.9-11.5-11.1c-0.2-4.1,0-8.2,0-12.6c16.1,0,31.8,0,47.7,0
	C234.5,273.2,235,277.9,234.4,282.4z"/>
</svg>
